<?xml version="1.0" encoding="UTF-8"?>
<svg id="Livello_1" data-name="Livello 1" xmlns="http://www.w3.org/2000/svg" viewBox="0 0 1019.96 940.14">
  <defs>
    <style>
      .cls-1 {
        fill: #00add3;
      }

      .cls-2 {
        fill: #2d58a7;
      }
    </style>
  </defs>
  <path class="cls-1" d="m668.05,707.98s-103.99-102.03-148.32-48.46c-32.98,39.86-63.78,89.35-91.32,143.41,62.39,6.82,123.33,8.66,178.29,8.59,22.04-39.08,43.29-74.06,61.35-103.54Z"/>
  <path class="cls-1" d="m149.63,725.92c45.54-45.83,115.05-68.69,181.15-89.84,28.47-49.32,26.87-112.43,17.03-180.53-83.16,33.23-180.51,58.66-251.52,107.97-1.4,4.21-36.67,113.81,53.34,162.4Z"/>
  <path class="cls-1" d="m499.73,107.68c-7.54,13.07-13,26.79-16.86,40.97.74.49,1.48.93,2.22,1.44,78.57,54.44,145.87,128.24,202.23,204.11,29.02-44.94,62.45-89.49,97.68-131.28-66.45-78.82-139.28-147.81-200.91-190.91-32.79,6.12-64.17,40.71-84.35,75.68Z"/>
  <path class="cls-1" d="m959.6,502.48c-18.03-48.49-45.49-99.91-78.54-150.79-37.1,50.62-69.17,102.48-96.58,150.11,22.83,38.63,42.49,74.52,59,104.9,0,0,140.36-39.04,116.12-104.22Z"/>
  <path class="cls-2" d="m726.52,809.26c-34.31.89-75.09,2.2-119.82,2.26-54.96.08-115.9-1.77-178.29-8.59-94.16-10.29-191.57-31.94-276.52-75.74-.79-.41-1.5-.86-2.27-1.28-90.01-48.59-54.74-158.19-53.34-162.4-1.71,1.19-3.48,2.32-5.16,3.53-.5.36-1.01.71-1.51,1.08-4.78,3.51-9.42,7.14-13.93,10.9-.4.33-.8.66-1.2.99-4.35,3.67-8.54,7.47-12.59,11.39-.63.61-1.26,1.23-1.89,1.84-3.77,3.72-7.39,7.58-10.88,11.54-.83.95-1.64,1.9-2.46,2.86-3.24,3.82-6.36,7.75-9.33,11.81-.85,1.17-1.68,2.36-2.51,3.55-2.85,4.07-5.59,8.24-8.15,12.56-.7,1.18-1.35,2.39-2.03,3.58-2.57,4.55-5.03,9.19-7.27,14.03-.43.93-.82,1.89-1.23,2.83-2.34,5.25-4.53,10.62-6.45,16.22-.16.47-.3.97-.46,1.44-2.05,6.1-3.89,12.37-5.43,18.9-18.44,78.32,32.46,150.04,95.31,179.39,56.3,26.29,131.74,50.37,213.51,68.17h412.21c24.41-42.64,1.67-130.88,1.67-130.88Z"/>
  <path class="cls-2" d="m330.78,636.08c1.11-.35,2.21-.71,3.32-1.06,44.43-14.44,86.9-27.95,119.3-47.28.31-.18.6-.37.91-.56,2.88-1.74,5.67-3.52,8.38-5.35.85-.57,1.65-1.17,2.48-1.76,2.19-1.54,4.35-3.09,6.41-4.71,1.18-.93,2.29-1.9,3.43-2.86,1.65-1.38,3.32-2.75,4.88-4.19,1.39-1.28,2.67-2.63,3.98-3.95,1.21-1.22,2.47-2.41,3.62-3.68,1.54-1.7,2.93-3.49,4.35-5.27.8-1.01,1.67-1.97,2.43-3,2.11-2.87,4.07-5.83,5.85-8.91,1.78-3.08,3.36-6.26,4.8-9.53.51-1.16.9-2.39,1.37-3.57.84-2.12,1.69-4.24,2.4-6.43.52-1.61.92-3.29,1.37-4.94.5-1.81,1.03-3.61,1.44-5.46.46-2.06.81-4.18,1.18-6.3.26-1.47.55-2.92.76-4.42.37-2.6.63-5.25.87-7.92.09-1,.21-1.99.28-3,.23-3.26.38-6.57.45-9.92,0-.36.02-.72.03-1.09.53-37.73-9-81.27-18.71-126.96-.24-1.13-.49-2.26-.73-3.39-14.74-67.86-29.71-139.53-12.75-201.91,3.86-14.18,9.32-27.9,16.86-40.97,20.19-34.96,51.56-69.56,84.35-75.68-56.84-39.75-144.4-47.98-203.01,7.16-42.39,39.88-60.63,90.83-65.58,143.74-.03.3-.06.6-.08.89-7.17,86.12,19.58,183.15,32.39,271.75,9.84,68.1,11.44,131.21-17.03,180.53Z"/>
  <path class="cls-1" d="m843.48,809.26s-22.74,88.24,1.67,130.88h174.81v-20.21c-18.62-38.93-38.18-75.66-57.17-109.31-44.46.43-85.02-.48-119.32-1.37Z"/>
  <path class="cls-2" d="m785,222.92c-35.23,41.79-68.66,86.34-97.68,131.28-32.33,50.06-59.19,100.59-76.92,148.28-24.23,65.18,116.12,104.22,116.12,104.22,16.39-30.16,35.64-66.13,57.95-104.9,27.41-47.63,59.48-99.49,96.58-150.11,40.21-54.86,86.33-108.25,138.9-153.11V13.5c-12.14,4.98-23.61,11.21-34.05,18.51-61.63,43.1-134.46,112.09-200.91,190.91Z"/>
  <path class="cls-2" d="m901.95,707.98c17.92,29.25,38.99,63.93,60.84,102.65,18.99,33.64,38.55,70.37,57.17,109.31v-275.84c-49.51-3.32-118.01,63.89-118.01,63.89Z"/>
</svg>