<?xml version="1.0" encoding="utf-8"?>
<!-- Generator: Adobe Illustrator 27.5.0, SVG Export Plug-In . SVG Version: 6.00 Build 0)  -->
<svg version="1.1" id="Livello_1" xmlns="http://www.w3.org/2000/svg" xmlns:xlink="http://www.w3.org/1999/xlink" x="0px" y="0px"
	 viewBox="0 0 1019.6 940.1" style="enable-background:new 0 0 1019.6 940.1;" xml:space="preserve">
<style type="text/css">
	.st0{opacity:0.2;fill:#FFFFFF;}
</style>
<path class="st0" d="M842.9,808.7c0,0-22.9,89,2,131.4h150c-22.7-47-47.2-90.8-70.2-130C894.8,810,867.3,809.4,842.9,808.7z"/>
<path class="st0" d="M519.4,659.1C493,691,468,729.2,444.9,770.8c57.5,5.6,111.9,6.9,158.1,6.9c7.7,0,15.1-0.1,22.5-0.1
	c15.1-25.8,29.4-49.3,42.1-70.1C667.6,707.5,563.7,605.6,519.4,659.1L519.4,659.1z"/>
<path class="st0" d="M167,697.2c3.4,1.7,6.9,3.3,10.3,5c30.8-21.8,67.7-37.4,105.7-50.7l18.7-32.3c22.6-39.2,22-92.4,14-151.6
	c-58.5,21.5-121.2,41.3-175.3,69.2c0,0-9.7,24.8-12.6,37C125.6,582.8,100.5,662.9,167,697.2L167,697.2z"/>
<path class="st0" d="M959,502.1c-14.4-38.8-34.9-79.4-59.4-120.2c-37.2,52-69.2,105.1-96.2,152.8c14.8,25.9,28,50.1,39.6,71.5
	C842.9,606.3,983.2,567.3,959,502.1L959,502.1z"/>
<path class="st0" d="M528.2,124.2c-8.1,14.1-13.3,29.5-16.4,45.7C569.5,214.5,620.6,269,665.5,326c29.2-44.2,62.3-87.8,97-128.6
	c-47.4-53.6-97-101.5-142.8-138.2c0,0-9.7-0.6-29.9,5.6C572.1,70.1,546.8,92,528.2,124.2L528.2,124.2z"/>
<path class="st0" d="M726,808.7c-34.3,0.9-75,2.2-119.7,2.3c-54.9,0.1-115.8-1.8-178.2-8.6c-94.1-10.3-191.4-31.9-276.3-75.7
	c-0.8-0.4-1.5-0.9-2.3-1.3c-89.9-48.6-54.7-158.1-53.3-162.3c-1.7,1.2-3.5,2.3-5.2,3.5c-0.5,0.4-1,0.7-1.5,1.1
	c-4.8,3.5-9.4,7.1-13.9,10.9c-0.4,0.3-0.8,0.7-1.2,1c-4.3,3.7-8.5,7.5-12.6,11.4c-0.6,0.6-1.3,1.2-1.9,1.8
	c-3.8,3.7-7.4,7.6-10.9,11.5c-0.8,0.9-1.6,1.9-2.5,2.8c-3.2,3.8-6.4,7.8-9.3,11.8c-0.8,1.2-1.7,2.4-2.5,3.5
	c-2.9,4.1-5.6,8.2-8.1,12.6c-0.7,1.2-1.4,2.4-2,3.6c-2.6,4.5-5,9.2-7.3,14c-0.4,0.9-0.8,1.9-1.2,2.8c-2.3,5.2-4.5,10.6-6.4,16.2
	c-0.2,0.5-0.3,1-0.5,1.4c-2.1,6.1-3.9,12.4-5.4,18.9c-18.4,78.3,32.4,149.9,95.2,179.3c56.9,26.6,133.4,50.9,216.1,68.7H724
	C749,897.7,726.1,808.7,726,808.7L726,808.7z"/>
<path class="st0" d="M330.6,635.7c1.1-0.4,2.2-0.7,3.4-1.1c44.4-14.4,86.8-27.9,119.2-47.2c0.3-0.2,0.6-0.4,0.9-0.6
	c2.9-1.7,5.7-3.5,8.4-5.3c0.9-0.6,1.6-1.2,2.5-1.8c2.2-1.5,4.3-3.1,6.4-4.7c1.2-0.9,2.3-1.9,3.5-2.9c1.6-1.4,3.3-2.7,4.9-4.2
	c1.4-1.3,2.7-2.6,4-4c1.2-1.2,2.5-2.4,3.6-3.7c1.5-1.7,2.9-3.5,4.3-5.3c0.8-1,1.7-2,2.4-3c2.1-2.9,4.1-5.8,5.9-8.9
	c1.8-3.1,3.4-6.3,4.8-9.5c0.5-1.2,0.9-2.4,1.4-3.6c0.8-2.1,1.7-4.2,2.4-6.4c0.5-1.6,0.9-3.3,1.4-4.9c0.5-1.8,1-3.6,1.4-5.5
	c0.5-2.1,0.8-4.2,1.2-6.3c0.3-1.5,0.5-2.9,0.8-4.4c0.4-2.6,0.6-5.2,0.9-7.9c0.1-1,0.2-2,0.3-3c0.2-3.3,0.4-6.6,0.5-9.9
	c0-0.4,0-0.7,0-1.1c0.5-37.7-9-81.3-18.7-127c-0.2-1.1-0.5-2.2-0.7-3.3c-14.7-67.8-29.7-139.4-12.7-201.8
	c3.9-14.2,9.3-27.9,16.9-40.9c20.2-34.9,51.5-69.5,84.3-75.6c-56.8-39.7-144.3-48-202.9,7.2c-42.4,39.8-60.6,90.8-65.5,143.6
	c0,0.3-0.1,0.6-0.1,0.9c-7.2,86.1,19.6,183,32.4,271.6C357.4,523.3,359,586.4,330.6,635.7L330.6,635.7z"/>
<path class="st0" d="M901.4,707.5c17.9,29.2,39.4,63.9,61.8,102.6c18.7,32.3,38,67.4,56.4,104.6v-271
	C970.1,640.1,901.4,707.5,901.4,707.5z"/>
<path class="st0" d="M784.5,222.8c-35.2,41.8-68.6,86.3-97.6,131.2c-32.3,50-59.2,100.5-76.9,148.2c-24.2,65.1,116,104.2,116,104.2
	c16.4-30.1,35.6-66.1,57.9-104.8c27.4-47.6,59.4-99.4,96.5-150c40.2-54.9,86.4-108.4,139.1-153.3V13.4c-12.2,5-23.8,11.3-34.3,18.6
	C923.7,75.1,850.9,144,784.5,222.8L784.5,222.8z"/>
</svg>
